<svg xmlns="http://www.w3.org/2000/svg" width="64" height="64" viewBox="0 0 64 64" fill="none" role="img" aria-label="Sergio">
  <defs>
    <linearGradient id="t" x1="0" y1="0" x2="0" y2="64" gradientUnits="userSpaceOnUse">
      <stop offset="0" stop-color="#ffffff" stop-opacity="0.18"/>
      <stop offset="1" stop-color="#ffffff" stop-opacity="0.04"/>
    </linearGradient>
    <linearGradient id="s" x1="0" y1="0" x2="0" y2="64" gradientUnits="userSpaceOnUse">
      <stop offset="0" stop-color="#ffffff" stop-opacity="1"/>
      <stop offset="1" stop-color="#c5cad4" stop-opacity="0.85"/>
    </linearGradient>
  </defs>
  <rect width="64" height="64" rx="14" fill="#0a0a0d"/>
  <rect x="2" y="2" width="60" height="60" rx="14" fill="url(#t)" stroke="#ffffff" stroke-opacity="0.28" stroke-width="1"/>
  <path d="M2 14 L14 2 M62 50 L50 62" stroke="#ffffff" stroke-opacity="0.18" stroke-width="1"/>
  <path d="M44 18 L44 15 Q44 12 41 12 L24 12 Q18 12 18 18 L18 27 Q18 33 24 33 L40 33 Q46 33 46 39 L46 49 Q46 52 43 52 L20 52" stroke="url(#s)" stroke-width="5" stroke-linecap="round" stroke-linejoin="round" fill="none"/>
  <circle cx="50" cy="14" r="1.6" fill="#c5cad4"/>
</svg>
